<svg width="126" height="48" viewBox="0 0 126 48" fill="none" xmlns="http://www.w3.org/2000/svg">
    <g transform="matrix(1,0,0,1,0.837943,-0.653395)">
        <path d="M49,17.182L49,22.864L34.625,22.864L34.625,17.182L49,17.182ZM37.409,11.955L45.25,11.955L45.25,31.983C45.25,32.286 45.302,32.542 45.406,32.75C45.51,32.949 45.671,33.1 45.889,33.205C46.107,33.299 46.386,33.347 46.727,33.347C46.964,33.347 47.239,33.318 47.551,33.261C47.873,33.205 48.11,33.157 48.261,33.119L49.398,38.631C49.047,38.735 48.545,38.863 47.892,39.014C47.248,39.166 46.481,39.265 45.591,39.313C43.792,39.407 42.281,39.222 41.06,38.759C39.838,38.285 38.92,37.542 38.304,36.528C37.688,35.515 37.39,34.246 37.409,32.722L37.409,11.955ZM62.477,39.398C60.109,39.398 58.083,38.929 56.397,37.992C54.711,37.045 53.419,35.728 52.519,34.043C51.62,32.347 51.17,30.383 51.17,28.148C51.17,25.913 51.62,23.953 52.519,22.267C53.419,20.572 54.711,19.256 56.397,18.318C58.083,17.371 60.109,16.898 62.477,16.898C64.844,16.898 66.871,17.371 68.556,18.318C70.242,19.256 71.534,20.572 72.434,22.267C73.334,23.953 73.783,25.913 73.783,28.148C73.783,30.383 73.334,32.347 72.434,34.043C71.534,35.728 70.242,37.045 68.556,37.992C66.871,38.929 64.844,39.398 62.477,39.398ZM62.533,33.602C63.196,33.602 63.769,33.38 64.252,32.935C64.735,32.49 65.109,31.855 65.374,31.031C65.639,30.207 65.772,29.227 65.772,28.091C65.772,26.945 65.639,25.965 65.374,25.151C65.109,24.327 64.735,23.692 64.252,23.247C63.769,22.802 63.196,22.58 62.533,22.58C61.833,22.58 61.231,22.802 60.729,23.247C60.228,23.692 59.844,24.327 59.579,25.151C59.314,25.965 59.181,26.945 59.181,28.091C59.181,29.227 59.314,30.207 59.579,31.031C59.844,31.855 60.228,32.49 60.729,32.935C61.231,33.38 61.833,33.602 62.533,33.602Z" style="fill:rgb(78,168,222);fill-rule:nonzero;" />
    </g>
    <g transform="matrix(1,0,0,1,0.837943,-0.653395)">
        <path d="M84.863,39.284C83.31,39.284 81.88,38.877 80.573,38.063C79.276,37.248 78.234,36.012 77.448,34.355C76.672,32.698 76.283,30.61 76.283,28.091C76.283,25.458 76.691,23.318 77.505,21.671C78.329,20.023 79.389,18.815 80.687,18.048C81.994,17.281 83.367,16.898 84.806,16.898C85.886,16.898 86.833,17.087 87.647,17.466C88.461,17.835 89.143,18.332 89.693,18.957C90.242,19.573 90.658,20.25 90.943,20.989L91.056,20.989L91.056,9.909L98.897,9.909L98.897,39L91.113,39L91.113,35.42L90.943,35.42C90.639,36.159 90.204,36.822 89.636,37.409C89.077,37.987 88.395,38.446 87.59,38.787C86.795,39.118 85.886,39.284 84.863,39.284ZM87.761,33.261C88.48,33.261 89.096,33.053 89.607,32.636C90.128,32.21 90.526,31.614 90.8,30.847C91.085,30.07 91.227,29.151 91.227,28.091C91.227,27.011 91.085,26.088 90.8,25.321C90.526,24.545 90.128,23.953 89.607,23.546C89.096,23.129 88.48,22.921 87.761,22.921C87.041,22.921 86.425,23.129 85.914,23.546C85.412,23.953 85.024,24.545 84.749,25.321C84.484,26.088 84.352,27.011 84.352,28.091C84.352,29.171 84.484,30.099 84.749,30.875C85.024,31.642 85.412,32.234 85.914,32.651C86.425,33.058 87.041,33.261 87.761,33.261ZM113.258,39.398C110.89,39.398 108.864,38.929 107.178,37.992C105.493,37.045 104.2,35.728 103.3,34.043C102.401,32.347 101.951,30.383 101.951,28.148C101.951,25.913 102.401,23.953 103.3,22.267C104.2,20.572 105.493,19.256 107.178,18.318C108.864,17.371 110.89,16.898 113.258,16.898C115.625,16.898 117.652,17.371 119.337,18.318C121.023,19.256 122.316,20.572 123.215,22.267C124.115,23.953 124.565,25.913 124.565,28.148C124.565,30.383 124.115,32.347 123.215,34.043C122.316,35.728 121.023,37.045 119.337,37.992C117.652,38.929 115.625,39.398 113.258,39.398ZM113.315,33.602C113.978,33.602 114.55,33.38 115.033,32.935C115.516,32.49 115.89,31.855 116.156,31.031C116.421,30.207 116.553,29.227 116.553,28.091C116.553,26.945 116.421,25.965 116.156,25.151C115.89,24.327 115.516,23.692 115.033,23.247C114.55,22.802 113.978,22.58 113.315,22.58C112.614,22.58 112.013,22.802 111.511,23.247C111.009,23.692 110.625,24.327 110.36,25.151C110.095,25.965 109.962,26.945 109.962,28.091C109.962,29.227 110.095,30.207 110.36,31.031C110.625,31.855 111.009,32.49 111.511,32.935C112.013,33.38 112.614,33.602 113.315,33.602Z" style="fill:rgb(94,96,206);fill-rule:nonzero;" />
    </g>
    <g>
        <g transform="matrix(1,0,0,1,0.575085,-4.0035)">
            <path d="M11.021,12.933C14.147,16.901 15.816,21.794 15.755,26.816L15.755,28.014L16.786,28.642C18.119,29.448 19.113,30.699 19.587,32.167C19.17,31.86 18.735,31.58 18.283,31.328L15.533,29.784L15.039,32.9C14.996,33.176 14.939,33.449 14.867,33.718L7.161,33.718C7.047,33.366 6.954,33.013 6.868,32.646L6.245,29.826L3.71,31.236C3.286,31.473 2.877,31.734 2.485,32.019C2.968,30.568 3.941,29.324 5.242,28.494L6.223,27.866L6.223,26.752C6.241,21.751 7.93,16.895 11.029,12.933L11.021,12.933ZM11.029,10C10.868,10 10.713,10.058 10.592,10.162L10.527,10.219C6.398,14.766 4.105,20.645 4.082,26.745C2.33,27.864 1.032,29.554 0.417,31.52C-0.198,33.485 -0.092,35.601 0.716,37.497C1.568,35.646 2.991,34.106 4.784,33.097C4.964,33.864 5.203,34.616 5.5,35.347C5.538,35.487 5.621,35.611 5.738,35.701C5.854,35.79 5.997,35.839 6.144,35.84L16.085,35.84C16.285,35.84 16.486,35.65 16.586,35.354C16.876,34.659 17.078,33.932 17.187,33.189C18.983,34.193 20.408,35.734 21.255,37.589C22.112,35.702 22.245,33.573 21.629,31.597C21.012,29.621 19.689,27.932 17.904,26.844C17.974,20.708 15.693,14.772 11.516,10.219C11.453,10.15 11.377,10.095 11.292,10.058C11.207,10.02 11.115,10 11.021,10L11.029,10Z" style="fill:rgb(78,168,222);fill-rule:nonzero;" />
        </g>
        <g transform="matrix(1,0,0,1,0.575085,-4.0035)">
            <path d="M11.021,26.16C10.471,26.16 9.934,26 9.476,25.699C9.018,25.399 8.661,24.972 8.45,24.472C8.238,23.972 8.182,23.421 8.288,22.89C8.393,22.358 8.657,21.87 9.044,21.485C9.431,21.101 9.926,20.838 10.465,20.73C11.004,20.622 11.563,20.673 12.073,20.877C12.582,21.082 13.019,21.43 13.327,21.878C13.636,22.326 13.803,22.855 13.807,23.396C13.816,23.747 13.754,24.096 13.625,24.424C13.497,24.751 13.304,25.05 13.058,25.304C12.812,25.558 12.517,25.762 12.191,25.904C11.865,26.046 11.514,26.123 11.157,26.132C11.112,26.139 11.066,26.139 11.021,26.132L11.021,26.16Z" style="fill:rgb(78,168,222);fill-rule:nonzero;" />
        </g>
        <g transform="matrix(1,0,0,1,0.575085,-4.0035)">
            <path d="M14.896,37.596C14.717,37.59 14.538,37.62 14.371,37.683C14.203,37.746 14.05,37.842 13.921,37.964C13.791,38.086 13.688,38.232 13.617,38.394C13.546,38.556 13.508,38.731 13.506,38.907L13.506,43.067C13.506,43.43 13.653,43.778 13.913,44.034C14.174,44.291 14.527,44.435 14.896,44.435C15.264,44.435 15.618,44.291 15.878,44.034C16.139,43.778 16.285,43.43 16.285,43.067L16.285,38.964C16.291,38.788 16.261,38.613 16.197,38.448C16.133,38.284 16.037,38.134 15.914,38.006C15.79,37.879 15.643,37.777 15.479,37.707C15.315,37.636 15.139,37.599 14.96,37.596L14.896,37.596Z" style="fill:rgb(94,96,206);fill-rule:nonzero;" />
        </g>
        <g transform="matrix(1,0,0,1,0.575085,-4.0035)">
            <path d="M7.161,37.596C6.979,37.586 6.797,37.613 6.625,37.674C6.454,37.736 6.296,37.83 6.163,37.953C6.029,38.075 5.922,38.222 5.847,38.387C5.773,38.551 5.733,38.728 5.729,38.907L5.729,43.067C5.729,43.43 5.875,43.778 6.136,44.034C6.396,44.291 6.75,44.435 7.118,44.435C7.487,44.435 7.84,44.291 8.101,44.034C8.361,43.778 8.508,43.43 8.508,43.067L8.508,38.964C8.513,38.788 8.483,38.613 8.42,38.448C8.356,38.284 8.26,38.134 8.136,38.006C8.013,37.879 7.865,37.777 7.701,37.707C7.538,37.636 7.361,37.599 7.183,37.596L7.161,37.596Z" style="fill:rgb(94,96,206);fill-rule:nonzero;" />
        </g>
        <g transform="matrix(1,0,0,1,0.575085,-4.0035)">
            <path d="M10.921,37.596C10.742,37.592 10.565,37.623 10.398,37.687C10.232,37.751 10.08,37.846 9.95,37.968C9.821,38.09 9.718,38.236 9.646,38.397C9.574,38.558 9.535,38.731 9.532,38.907L9.532,44.639C9.532,45.002 9.678,45.35 9.939,45.606C10.199,45.863 10.553,46.007 10.921,46.007C11.29,46.007 11.643,45.863 11.903,45.606C12.164,45.35 12.31,45.002 12.31,44.639L12.31,38.999C12.316,38.823 12.286,38.648 12.223,38.484C12.159,38.319 12.062,38.169 11.939,38.042C11.816,37.914 11.668,37.812 11.504,37.742C11.341,37.671 11.164,37.634 10.986,37.631L10.921,37.596Z" style="fill:rgb(94,96,206);fill-rule:nonzero;" />
        </g>
    </g>
</svg>